<svg xmlns="http://www.w3.org/2000/svg" width="61.994" height="61.994" style="enable-background:new 0 0 61.994 61.994" xml:space="preserve">
    <path d="m54.988 23.789-.031-.113a2.947 2.947 0 0 0-.135-.572l-.064-.192-.046-.099a3.212 3.212 0 0 0-.358-.597l-.033-.068L33.05.884a3.023 3.023 0 0 0-.9-.613l-.253-.094a3.075 3.075 0 0 0-.581-.137L31.169 0H17C11.486 0 7 4.485 7 10v41.994c0 5.514 4.486 10 10.001 10h27.996c5.515 0 9.998-4.484 9.998-10V24.073l-.007-.284zm-5.994 28.204a4.002 4.002 0 0 1-3.997 3.997H17a4.003 4.003 0 0 1-3.999-3.997V9.999A4.003 4.003 0 0 1 17 6h10.921v11.072c0 5.514 4.486 10.001 10 10.001h11.072v24.92z"/>
    <path d="M14.675 34.112a2.337 2.337 0 0 0 2.337 2.337h26.487a2.337 2.337 0 0 0 0-4.674H17.012a2.337 2.337 0 0 0-2.337 2.337zM43.499 38.008H17.012a2.337 2.337 0 0 0 0 4.674h26.487a2.337 2.337 0 0 0 0-4.674zM43.499 44.24H17.012a2.337 2.337 0 1 0 0 4.674h26.487a2.337 2.337 0 0 0 0-4.674z"/>
</svg>
