<svg xmlns="http://www.w3.org/2000/svg" viewBox="0 0 494.4 494.4" style="enable-background:new 0 0 494.4 494.4" xml:space="preserve">
    <path style="fill:#dbab56" d="M247.2 494.4c-132 0-240-108-240-240s108-240 240-240 240 108 240 240-108 240-240 240z"/>
    <circle style="fill:#efb30c" cx="247.2" cy="240" r="224.8"/>
    <path style="fill:#e5a300" d="M48.8 267.2c0-124 100.8-224.8 224.8-224.8 55.2 0 105.6 20 144.8 52.8-40.8-48.8-102.4-80-171.2-80C123.2 15.2 22.4 116 22.4 240c0 68.8 31.2 130.4 80 172-33.6-39.2-53.6-89.6-53.6-144.8z"/>
    <path style="fill:#e5a300" d="M406.4 81.6c88 88 88 230.4 0 318.4S176 488 88 400"/>
    <path style="fill:#f7d27f" d="M247.2 480c-132 0-240-108-240-240s108-240 240-240 240 108 240 240-108 240-240 240zm0-449.6c-116 0-209.6 94.4-209.6 209.6 0 116 94.4 209.6 209.6 209.6S456.8 355.2 456.8 240 363.2 30.4 247.2 30.4z"/>
    <path style="fill:#efc273" d="M487.2 240c0-60.8-22.4-116-59.2-157.6-42.4-36.8-97.6-59.2-158.4-59.2-40.8 0-78.4 10.4-112 28 27.2-13.6 57.6-20.8 89.6-20.8 63.2 0 120.8 28.8 159.2 73.6 44.8 38.4 72.8 95.2 72.8 159.2 0 32-7.2 62.4-20 89.6 17.6-33.6 28-72 28-112.8z"/>
    <path style="fill:#eac06c" d="M29.6 263.2c0 60.8 22.4 116 59.2 157.6 42.4 36.8 97.6 59.2 157.6 59.2 40.8 0 78.4-10.4 112-28-27.2 12.8-57.6 20-89.6 20-63.2 0-120.8-28.8-159.2-73.6C64.8 360 36 303.2 36 239.2c0-32 7.2-62.4 20-89.6-16 34.4-26.4 72.8-26.4 113.6z"/>
    <path style="fill:#e5a300" d="M260.8 88.8c0 7.2-6.4 19.2-13.6 19.2s-13.6-12-13.6-19.2 6.4-13.6 13.6-13.6 13.6 6.4 13.6 13.6z"/>
    <circle style="fill:#f7d27f" cx="247.2" cy="88.8" r="13.6"/>
    <path style="fill:#efc273" d="M256.8 79.2c5.6 5.6 5.6 13.6 0 19.2s-13.6 5.6-19.2 0"/>
    <path style="fill:#ffe0a1" d="M248.8 22.4c0 .8-.8 1.6-1.6 1.6s-1.6-.8-1.6-1.6V7.2c0-.8.8-1.6 1.6-1.6s1.6.8 1.6 1.6v15.2zM248.8 473.6c0 .8-.8 1.6-1.6 1.6s-1.6-.8-1.6-1.6v-15.2c0-.8.8-1.6 1.6-1.6s1.6.8 1.6 1.6v15.2zM402.4 88c-.8.8-1.6.8-2.4 0-.8-.8-.8-1.6 0-2.4l11.2-11.2c.8-.8 1.6-.8 2.4 0 .8.8.8 1.6 0 2.4L402.4 88zM84 406.4c-.8.8-1.6.8-2.4 0-.8-.8-.8-1.6 0-2.4l11.2-11.2c.8-.8 1.6-.8 2.4 0 .8.8.8 1.6 0 2.4L84 406.4zM464.8 242.4c-.8 0-1.6-.8-1.6-1.6s.8-1.6 1.6-1.6H480c.8 0 1.6.8 1.6 1.6s-.8 1.6-1.6 1.6h-15.2zM14.4 242.4c-.8 0-1.6-.8-1.6-1.6s.8-1.6 1.6-1.6h15.2c.8-.8 1.6 0 1.6.8s-.8 1.6-1.6 1.6H14.4v.8zM400 396c-.8-.8-.8-1.6 0-2.4.8-.8 1.6-.8 2.4 0l11.2 11.2c.8.8.8 1.6 0 2.4-.8.8-1.6.8-2.4 0L400 396zM80.8 76.8c-.8-.8-.8-1.6 0-2.4.8-.8 1.6-.8 2.4 0l11.2 11.2c.8.8.8 1.6 0 2.4-.8.8-1.6.8-2.4 0L80.8 76.8zM140 51.2c.8.8 0 2.4-.8 2.4-.8.8-2.4 0-2.4-.8l-8-13.6c-.8-.8 0-2.4.8-2.4.8-.8 2.4 0 2.4.8l8 13.6zM365.6 441.6c.8.8 0 2.4-.8 2.4-.8.8-2.4 0-2.4-.8l-8-13.6c-.8-.8 0-2.4.8-2.4.8-.8 2.4 0 2.4.8l8 13.6zM305.6 30.4c0 .8-1.6 1.6-2.4 1.6-.8 0-1.6-1.6-1.6-2.4l4-15.2c0-.8 1.6-1.6 2.4-1.6.8 0 1.6 1.6 1.6 2.4l-4 15.2zM188.8 465.6c0 .8-1.6 1.6-2.4 1.6-.8 0-1.6-1.6-1.6-2.4l4-15.2c0-.8 1.6-1.6 2.4-1.6.8 0 1.6 1.6 1.6 2.4l-4 15.2zM436.8 132.8c-.8.8-2.4 0-2.4-.8-.8-.8 0-2.4.8-2.4l13.6-8c.8-.8 2.4 0 2.4.8.8.8 0 2.4-.8 2.4l-13.6 8zM46.4 358.4c-.8.8-2.4 0-2.4-.8-.8-.8 0-2.4.8-2.4l13.6-8c.8-.8 2.4 0 2.4.8.8.8 0 2.4-.8 2.4l-13.6 8zM456.8 298.4c-.8 0-1.6-1.6-1.6-2.4 0-.8 1.6-1.6 2.4-1.6l15.2 4c.8 0 1.6 1.6 1.6 2.4 0 .8-1.6 1.6-2.4 1.6l-15.2-4zM21.6 181.6c-.8 0-1.6-1.6-1.6-2.4 0-.8 1.6-1.6 2.4-1.6l15.2 4c.8 0 1.6 1.6 1.6 2.4 0 .8-1.6 1.6-2.4 1.6l-15.2-4zM60 129.6c.8.8 1.6 1.6.8 2.4-.8.8-1.6 1.6-2.4.8l-13.6-8c-.8-.8-1.6-1.6-.8-2.4.8-.8 1.6-1.6 2.4-.8l13.6 8zM450.4 355.2c.8.8 1.6 1.6.8 2.4-.8.8-1.6 1.6-2.4.8l-13.6-8c-.8-.8-1.6-1.6-.8-2.4.8-.8 1.6-1.6 2.4-.8l13.6 8zM192.8 29.6c0 .8 0 2.4-1.6 2.4-.8 0-2.4 0-2.4-1.6l-4-15.2c0-.8 0-2.4 1.6-2.4.8 0 2.4 0 2.4 1.6l4 15.2zM309.6 464.8c0 .8 0 2.4-1.6 2.4-.8 0-2.4 0-2.4-1.6l-4-15.2c0-.8 0-2.4 1.6-2.4.8 0 2.4 0 2.4 1.6l4 15.2zM357.6 52.8c-.8.8-1.6 1.6-2.4.8-.8-.8-1.6-1.6-.8-2.4l8-13.6c.8-.8 1.6-1.6 2.4-.8.8.8 1.6 1.6.8 2.4l-8 13.6zM132 443.2c-.8.8-1.6 1.6-2.4.8-.8-.8-1.6-1.6-.8-2.4l8-13.6c.8-.8 1.6-1.6 2.4-.8.8.8 1.6 1.6.8 2.4l-8 13.6zM457.6 185.6c-.8 0-2.4 0-2.4-1.6 0-.8 0-2.4 1.6-2.4l15.2-4c.8 0 2.4 0 2.4 1.6 0 .8 0 2.4-1.6 2.4l-15.2 4zM22.4 302.4c-.8 0-2.4 0-2.4-1.6 0-.8 0-2.4 1.6-2.4l15.2-4c.8 0 2.4 0 2.4 1.6 0 .8 0 2.4-1.6 2.4l-15.2 4z"/>
    <path style="fill:#f7d27f" d="M129.6 326.4c-.8 0-1.6 0-2.4-.8-35.2-15.2-52-56-36.8-92 1.6-3.2 4.8-4.8 8-3.2s4.8 4.8 3.2 8c-6.4 14.4-6.4 30.4 0 44 5.6 14.4 16.8 25.6 31.2 32 3.2 1.6 4.8 4.8 3.2 8-1.6 2.4-4 4-6.4 4z"/>
    <path style="fill:#efc273" d="M100.8 283.2c-4.8-12-5.6-24.8-1.6-37.6 0-4 .8-8 2.4-12-.8-1.6-1.6-2.4-3.2-3.2-3.2-1.6-6.4 0-8 3.2s-2.4 6.4-3.2 9.6c-3.2 29.6 13.6 59.2 42.4 72 .8 0 1.6.8 2.4.8h1.6l-.8-.8c-15.2-6.4-26.4-17.6-32-32z"/>
    <path style="fill:#f7d27f" d="M121.6 185.6c-8.8 0-18.4 7.2-24 19.2C92 216 96 220 100.8 226.4l20.8-40.8z"/>
    <path style="fill:#efc273" d="M121.6 185.6c4.8 7.2 4.8 19.2-.8 30.4-5.6 12-11.2 10.4-20 10.4l20.8-40.8z"/>
    <path style="fill:#f7d27f" d="M69.6 203.2c5.6-.8 12 4 16 10.4 4 7.2 1.6 9.6-.8 14.4l-15.2-24.8z"/>
    <path style="fill:#efc273" d="M69.6 203.2c-3.2 4-2.4 12 1.6 19.2s8 5.6 12.8 5.6l-14.4-24.8z"/>
    <path style="fill:#f7d27f" d="M140.8 232c-4.8-4.8-13.6-5.6-22.4-3.2-8.8 3.2-8.8 7.2-9.6 12.8l32-9.6z"/>
    <path style="fill:#efc273" d="M140.8 232c-.8 6.4-7.2 12.8-16.8 15.2-8.8 3.2-11.2-.8-15.2-4.8l32-10.4z"/>
    <path style="fill:#f7d27f" d="M132.8 260c-3.2-3.2-10.4-4.8-18.4-2.4-7.2 2.4-7.2 5.6-8 10.4l26.4-8z"/>
    <path style="fill:#efc273" d="M132.8 260c-.8 4.8-5.6 10.4-13.6 12.8s-8.8-.8-12.8-4l26.4-8.8z"/>
    <path style="fill:#f7d27f" d="M56.8 236.8c4-2.4 11.2-1.6 18.4 2.4 6.4 4 5.6 7.2 4.8 12l-23.2-14.4z"/>
    <path style="fill:#efc273" d="M56.8 236c-.8 4.8 3.2 11.2 9.6 15.2s8.8 1.6 12.8-.8L56.8 236z"/>
    <path style="fill:#f7d27f" d="M57.6 264.8c3.2-3.2 8.8-4.8 15.2-3.2 6.4 1.6 6.4 4.8 7.2 8.8l-22.4-5.6z"/>
    <path style="fill:#efc273" d="M57.6 264.8c.8 4 5.6 8 12 9.6s8-.8 10.4-4l-22.4-5.6z"/>
    <path style="fill:#f7d27f" d="M62.4 289.6c2.4-4 8-5.6 15.2-4.8 6.4.8 7.2 4 8 8l-23.2-3.2z"/>
    <path style="fill:#efc273" d="M62.4 289.6c1.6 4 6.4 7.2 13.6 8 6.4.8 7.2-1.6 9.6-5.6l-23.2-2.4z"/>
    <path style="fill:#f7d27f" d="M79.2 313.6c1.6-3.2 5.6-6.4 11.2-6.4 5.6-.8 6.4 1.6 8 4.8l-19.2 1.6z"/>
    <path style="fill:#efc273" d="M79.2 312.8c1.6 3.2 7.2 4.8 12.8 4.8 5.6-.8 5.6-3.2 7.2-6.4l-20 1.6z"/>
    <path style="fill:#f7d27f" d="M101.6 330.4c0-3.2 2.4-6.4 6.4-8.8s5.6-.8 8 .8l-14.4 8z"/>
    <path style="fill:#efc273" d="M101.6 330.4c2.4 1.6 7.2 1.6 11.2-.8s4-4 3.2-7.2l-14.4 8z"/>
    <path style="fill:#f7d27f" d="M135.2 278.4c-4-2.4-9.6-1.6-16 1.6-5.6 3.2-4.8 6.4-4.8 10.4l20.8-12z"/>
    <path style="fill:#efc273" d="M135.2 278.4c0 4-3.2 9.6-8.8 12.8-5.6 3.2-8 1.6-11.2-.8l20-12z"/>
    <path style="fill:#f7d27f" d="M140.8 294.4c-3.2-1.6-8 0-12 4s-2.4 5.6-1.6 8.8l13.6-12.8z"/>
    <path style="fill:#efc273" d="M140.8 294.4c.8 3.2-.8 8-4.8 12s-5.6 2.4-8.8.8l13.6-12.8z"/>
    <path style="fill:#f7d27f" d="M364.8 326.4c.8 0 1.6 0 2.4-.8 35.2-15.2 52-56 36.8-92-1.6-3.2-4.8-4.8-8-3.2s-4.8 4.8-3.2 8c6.4 14.4 6.4 30.4 0 44-5.6 14.4-16.8 25.6-31.2 32-3.2 1.6-4.8 4.8-3.2 8 1.6 2.4 4 4 6.4 4z"/>
    <path style="fill:#efc273" d="M393.6 283.2c4.8-12 5.6-24.8 1.6-37.6 0-4-.8-8-2.4-12 .8-1.6 1.6-2.4 3.2-3.2 3.2-1.6 6.4 0 8 3.2s2.4 6.4 3.2 9.6c3.2 29.6-13.6 59.2-42.4 72-.8 0-1.6.8-2.4.8h-1.6l.8-.8c15.2-6.4 26.4-17.6 32-32z"/>
    <path style="fill:#f7d27f" d="M372.8 185.6c8.8 0 18.4 7.2 24 19.2 5.6 11.2 1.6 15.2-3.2 21.6l-20.8-40.8z"/>
    <path style="fill:#efc273" d="M372.8 185.6c-4.8 7.2-4.8 19.2.8 30.4 5.6 12 11.2 10.4 20 10.4l-20.8-40.8z"/>
    <path style="fill:#f7d27f" d="M424.8 203.2c-5.6-.8-12 4-16 10.4-4 7.2-1.6 9.6.8 14.4l15.2-24.8z"/>
    <path style="fill:#efc273" d="M424.8 203.2c2.4 4.8 2.4 12-2.4 19.2-4 7.2-8 5.6-12.8 5.6l15.2-24.8z"/>
    <path style="fill:#f7d27f" d="M353.6 232c4-4.8 13.6-5.6 22.4-3.2 8.8 3.2 8.8 7.2 9.6 12.8l-32-9.6z"/>
    <path style="fill:#efc273" d="M353.6 232c.8 6.4 7.2 12.8 16.8 15.2 8.8 3.2 11.2-.8 15.2-4.8l-32-10.4z"/>
    <path style="fill:#f7d27f" d="M361.6 260c3.2-3.2 10.4-4.8 18.4-2.4 7.2 2.4 7.2 5.6 8 10.4l-26.4-8z"/>
    <path style="fill:#efc273" d="M361.6 260c.8 4.8 5.6 10.4 13.6 12.8s8.8-.8 12.8-4l-26.4-8.8z"/>
    <path style="fill:#f7d27f" d="M437.6 236.8c-4-2.4-11.2-1.6-18.4 2.4-6.4 4-5.6 7.2-4.8 12l23.2-14.4z"/>
    <path style="fill:#efc273" d="M437.6 236c.8 4.8-3.2 11.2-9.6 15.2s-8.8 1.6-12.8-.8l22.4-14.4z"/>
    <path style="fill:#f7d27f" d="M436.8 264.8c-3.2-3.2-8.8-4.8-15.2-3.2-6.4 1.6-6.4 4.8-7.2 8.8l22.4-5.6z"/>
    <path style="fill:#efc273" d="M436.8 264.8c-.8 4-5.6 8-12 9.6s-8-.8-10.4-4l22.4-5.6z"/>
    <path style="fill:#f7d27f" d="M432 289.6c-2.4-4-8-5.6-15.2-4.8-6.4.8-7.2 4-8 8l23.2-3.2z"/>
    <path style="fill:#efc273" d="M432 289.6c-1.6 4-6.4 7.2-13.6 8-6.4.8-7.2-1.6-9.6-5.6l23.2-2.4z"/>
    <path style="fill:#f7d27f" d="M415.2 313.6c-1.6-3.2-5.6-6.4-11.2-6.4-5.6-.8-6.4 1.6-8 4.8l19.2 1.6z"/>
    <path style="fill:#efc273" d="M415.2 312.8c-1.6 3.2-7.2 4.8-12.8 4.8-5.6-.8-5.6-3.2-7.2-6.4l20 1.6z"/>
    <path style="fill:#f7d27f" d="M392.8 330.4c0-3.2-2.4-6.4-6.4-8.8s-5.6-.8-8 .8l14.4 8z"/>
    <path style="fill:#efc273" d="M392.8 330.4c-2.4 1.6-7.2 1.6-11.2-.8s-4-4-3.2-7.2l14.4 8z"/>
    <path style="fill:#f7d27f" d="M359.2 278.4c4-2.4 9.6-1.6 16 1.6 5.6 3.2 4.8 6.4 4.8 10.4l-20.8-12z"/>
    <path style="fill:#efc273" d="M359.2 278.4c0 4 3.2 9.6 8.8 12.8 5.6 3.2 8 1.6 11.2-.8l-20-12z"/>
    <path style="fill:#f7d27f" d="M353.6 294.4c3.2-1.6 8 0 12 4s2.4 5.6 1.6 8.8l-13.6-12.8z"/>
    <path style="fill:#efc273" d="M353.6 294.4c-.8 3.2.8 8 4.8 12s5.6 2.4 8.8.8l-13.6-12.8z"/>
    <path style="fill:#f9e310" d="M340 303.2c-5.6-3.2-12.8-1.6-16 4-11.2 19.2-31.2 30.4-53.6 30.4h-8c-31.2 0-56.8-23.2-61.6-52.8h26.4c6.4 0 11.2-4.8 11.2-11.2 0-6.4-4.8-11.2-11.2-11.2H200v-27.2h27.2c6.4 0 11.2-4.8 11.2-11.2s-4.8-11.2-11.2-11.2h-26.4c4.8-29.6 30.4-52.8 61.6-52.8h8c21.6 0 41.6 11.2 53.6 30.4 3.2 5.6 10.4 7.2 16 4s7.2-10.4 4-16c-16-25.6-43.2-40.8-72.8-40.8h-8c-44 0-80 33.6-85.6 76h-16.8c-6.4 0-11.2 4.8-11.2 11.2s4.8 11.2 11.2 11.2h16.8v27.2h-16.8c-6.4 0-11.2 4.8-11.2 11.2 0 6.4 4.8 11.2 11.2 11.2h16.8c4.8 42.4 41.6 76 85.6 76h8c30.4 0 57.6-15.2 72.8-40.8 3.2-7.2 1.6-14.4-4-17.6z"/>
    <path style="fill:#f7c011" d="M227.2 284c6.4 0 11.2-4.8 11.2-11.2 0-6.4-4.8-11.2-11.2-11.2L204 284.8h23.2v-.8zM340 303.2c-5.6-3.2-12.8-1.6-16 4-11.2 19.2-31.2 30.4-53.6 30.4h-8c-30.4 0-56-21.6-61.6-50.4l-18.4 18.4c12.8 32 43.2 55.2 80 55.2h8c30.4 0 57.6-15.2 72.8-40.8 4-6.4 2.4-13.6-3.2-16.8zM324 188c3.2 5.6 10.4 7.2 16 4s7.2-10.4 4-16c-4-6.4-8.8-12.8-14.4-17.6l-16 16.8c4 3.2 7.2 7.2 10.4 12.8z"/>
</svg>
