<svg xmlns="http://www.w3.org/2000/svg" viewBox="0 0 512 512" style="enable-background:new 0 0 512 512" xml:space="preserve">
    <circle style="fill:#fbb500" cx="256" cy="256" r="256"/>
    <circle style="fill:#ffce47" cx="256" cy="256" r="227.788"/>
    <path style="fill:#ffce47" d="M256 0C114.615 0 0 114.615 0 256s114.615 256 256 256V0z"/>
    <path style="fill:#ffe29e" d="M256 28.212C130.196 28.212 28.212 130.196 28.212 256S130.196 483.788 256 483.788V28.212z"/>
    <path style="fill:#fbb500" d="M256 457.317c-111.007 0-201.317-90.311-201.317-201.317S144.993 54.683 256 54.683 457.317 144.993 457.317 256 367.007 457.317 256 457.317zm0-371.287c-93.722 0-169.97 76.248-169.97 169.97S162.278 425.97 256 425.97 425.97 349.722 425.97 256 349.722 86.03 256 86.03z"/>
    <path style="fill:#fbb500" d="M259.486 173.801h64.296v-31.347h-64.296c-40.276 0-73.905 28.925-81.252 67.088h-27.63v31.347h26.122v30.223h-26.122v31.347h27.63c7.348 38.163 40.978 67.088 81.252 67.088h64.296V338.2h-64.296c-22.885 0-42.318-15.033-48.963-35.741h81.912v-31.347h-84.363v-30.223h84.363v-31.347h-81.912c6.644-20.708 26.077-35.741 48.963-35.741z"/>
</svg>
