<svg xmlns="http://www.w3.org/2000/svg" width="35.5" height="35.5" style="enable-background:new 0 0 35.5 35.5" xml:space="preserve">
    <path d="M22.681 20.423h3.556v.646c0 2.733-.615 4.498-1.846 5.293-.913.592-2.869.89-5.868.89-3.5 0-5.676-.604-6.523-1.808-.493-.699-.843-2.112-1.053-4.237H9.264l.34-2.299h1.178a80.054 80.054 0 0 1-.055-2.297H9.264l.34-2.297h1.178c.165-2.272.719-3.809 1.669-4.609 1.139-.965 3.45-1.451 6.932-1.451 2.673 0 4.449.398 5.334 1.191.812.729 1.258 2.314 1.341 4.759l.013.424h-3.554v-.479c0-1.313-.321-2.146-.958-2.502-.43-.236-1.392-.355-2.887-.355-2.005 0-3.231.27-3.678.809-.282.336-.474 1.075-.574 2.215h6.441l-.34 2.299h-6.196v.271c0 .686.007 1.358.027 2.023h5.824l-.341 2.299h-5.36c.099 1.012.251 1.686.452 2.023.392.655 1.581.982 3.571.982 1.77 0 2.912-.183 3.434-.546.555-.394.813-1.194.776-2.408l-.027-.836zm12.818-2.454C35.38 27.636 27.419 35.5 17.753 35.5l-.222-.001a17.639 17.639 0 0 1-12.486-5.354A17.63 17.63 0 0 1 .001 17.533C.122 7.863 8.083 0 17.748 0l.222.001c4.741.06 9.175 1.96 12.486 5.354a17.632 17.632 0 0 1 5.043 12.614zM6.824 29.07a15.728 15.728 0 0 0 4.506 3.061l.47-1.154a14.61 14.61 0 0 1-4.085-2.773l-.891.866zm5.433 3.43c1.523.566 3.135.896 4.798.969l.015-1.24a14.324 14.324 0 0 1-4.343-.881l-.47 1.152zm5.801.984a15.484 15.484 0 0 0 5.341-1.058l-.479-1.142c-1.515.583-3.145.92-4.845.957l-.017 1.243zm6.258-1.449a15.875 15.875 0 0 0 4.062-2.715l-.863-.885a14.695 14.695 0 0 1-3.678 2.459l.479 1.141zm6.944-14.118c.093-7.449-5.894-13.584-13.343-13.676l-.169-.001c-7.357 0-13.417 5.984-13.507 13.343-.092 7.449 5.894 13.585 13.344 13.677l.169.002c7.355 0 13.415-5.989 13.506-13.345zM4.167 12.711l-1.146-.468a15.573 15.573 0 0 0-.986 4.774l1.239.016a14.37 14.37 0 0 1 .893-4.322zM2.019 18.02a15.69 15.69 0 0 0 1.016 5.338l1.153-.482a14.454 14.454 0 0 1-.93-4.84l-1.239-.016zM28.638 6.393a15.684 15.684 0 0 0-4.492-3.035l-.472 1.154a14.497 14.497 0 0 1 4.071 2.75l.893-.869zM23.215 2.99a15.67 15.67 0 0 0-4.771-.959l-.015 1.24c1.512.071 2.96.373 4.316.871l.47-1.152zm-5.773-.974a15.546 15.546 0 0 0-5.312 1.045l.481 1.144a14.347 14.347 0 0 1 4.816-.947l.015-1.242zm-6.233 1.435a15.914 15.914 0 0 0-4.048 2.691l.864.885a14.658 14.658 0 0 1 3.664-2.435l-.48-1.141zm20.148 19.272 1.146.469c.561-1.504.896-3.108.965-4.784l-1.238-.017a14.29 14.29 0 0 1-.873 4.332zm2.122-5.319a15.704 15.704 0 0 0-1.036-5.329l-1.153.485c.58 1.506.909 3.133.951 4.831l1.238.013zM29.336 7.105l-.893.869a14.529 14.529 0 0 1 2.448 3.668l1.149-.484a15.584 15.584 0 0 0-2.704-4.053zm-25.94 4.209 1.148.47a14.601 14.601 0 0 1 2.765-4.062l-.866-.886a15.887 15.887 0 0 0-3.047 4.478zm2.73 17.04.891-.869a14.588 14.588 0 0 1-2.441-3.688l-1.15.481a15.824 15.824 0 0 0 2.7 4.076zm26.012-4.234-1.146-.468a14.615 14.615 0 0 1-2.76 4.084l.864.886a15.883 15.883 0 0 0 3.042-4.502z"/>
</svg>
