<svg xmlns="http://www.w3.org/2000/svg" width="200" height="200" viewBox="924 578 200 200" xml:space="preserve">
    <path d="M984.585 638.942c0 13.999-9.609 25.348-21.462 25.348-11.852 0-21.459-11.349-21.459-25.348 0-13.998 9.607-25.346 21.459-25.346 11.853 0 21.462 11.348 21.462 25.346z"/>
    <path d="M987.585 683.641a14.088 14.088 0 0 1 5.041-1.855c-3.606-5.088-6.161-10.546-7.637-17.078-.404-2.387-3.672-2.667-6.102-.687-4.546 3.706-9.849 6.186-15.765 6.186-6.03 0-11.577-2.399-16.024-6.414a4.314 4.314 0 0 0-5.143-.479c-8.443 5.158-14.834 13.344-17.622 23.067a8.65 8.65 0 0 0 8.317 11.031h38.668a69.3 69.3 0 0 1 16.267-13.771zM1063.416 638.942c0 13.999 9.608 25.348 21.461 25.348 11.854 0 21.46-11.349 21.46-25.348 0-13.998-9.606-25.346-21.46-25.346-11.853 0-21.461 11.348-21.461 25.346z"/>
    <path d="M1060.415 683.641a14.095 14.095 0 0 0-5.041-1.855c3.606-5.088 6.161-10.546 7.637-17.078.405-2.387 3.673-2.667 6.103-.687 4.546 3.706 9.848 6.186 15.764 6.186 6.029 0 11.577-2.399 16.025-6.414a4.313 4.313 0 0 1 5.142-.479c8.444 5.158 14.836 13.344 17.622 23.067a8.656 8.656 0 0 1-1.41 7.588 8.659 8.659 0 0 1-6.905 3.443h-38.67a69.28 69.28 0 0 0-16.267-13.771zM1082.475 725.451c-4.198-14.654-13.72-27.045-26.326-34.992a6.637 6.637 0 0 0-7.921.631c-6.766 5.959-15.138 9.506-24.228 9.506-9.269 0-17.791-3.686-24.626-9.855a6.624 6.624 0 0 0-7.902-.734c-12.977 7.924-22.799 20.504-27.082 35.445a13.296 13.296 0 0 0 12.781 16.953h92.523a13.291 13.291 0 0 0 12.781-16.954z"/>
    <path d="M1056.981 652.547c0 21.513-14.766 38.955-32.981 38.955-18.214 0-32.979-17.442-32.979-38.955 0-21.515 14.765-38.951 32.979-38.951 18.216 0 32.981 17.437 32.981 38.951z"/>
</svg>
